<?xml version="1.0" encoding="utf-8"?>
<!-- Generator: Adobe Illustrator 16.0.0, SVG Export Plug-In . SVG Version: 6.00 Build 0)  -->
<!DOCTYPE svg PUBLIC "-//W3C//DTD SVG 1.1//EN" "http://www.w3.org/Graphics/SVG/1.1/DTD/svg11.dtd">
<svg version="1.1" id="Layer_1" xmlns="http://www.w3.org/2000/svg" xmlns:xlink="http://www.w3.org/1999/xlink" x="0px" y="0px"
	 width="651.945px" height="315px" viewBox="0 0 651.945 315" enable-background="new 0 0 651.945 315" xml:space="preserve">
<g>
	<line fill="none" stroke="#000000" stroke-miterlimit="10" x1="13.64" y1="196.4" x2="13.64" y2="242.722"/>
	<line fill="none" stroke="#000000" stroke-miterlimit="10" x1="13.637" y1="219.266" x2="23.482" y2="219.266"/>
	
		<rect x="297.626" y="25.708" fill="#27AAE1" fill-opacity="0.5" stroke="#000000" stroke-miterlimit="10" width="56.693" height="25.345"/>
	<text transform="matrix(1 0 0 1 313.7441 42.4888)" font-family="'MyriadPro-Regular'" font-size="14">App</text>
	<rect x="334.05" y="85.67" fill="#D1D3D4" stroke="#000000" stroke-miterlimit="10" width="99.213" height="25.345"/>
	<text transform="matrix(1 0 0 1 366.3887 102.4512)" font-family="'MyriadPro-Regular'" font-size="14">Route</text>
	<rect x="449.263" y="85.67" fill="#D1D3D4" stroke="#000000" stroke-miterlimit="10" width="99.213" height="25.345"/>
	<text transform="matrix(1 0 0 1 460.896 102.4512)" font-family="'MyriadPro-Regular'" font-size="14">FooterGlobal</text>
	<rect x="103.469" y="85.551" fill="#D1D3D4" stroke="#000000" stroke-miterlimit="10" width="99.213" height="25.345"/>
	<text transform="matrix(1 0 0 1 112.8687 102.3325)" font-family="'MyriadPro-Regular'" font-size="14">HeaderGlobal</text>
	<rect x="219.184" y="85.67" fill="#D1D3D4" stroke="#000000" stroke-miterlimit="10" width="99.213" height="25.345"/>
	<text transform="matrix(1 0 0 1 257.5493 102.4512)" font-family="'MyriadPro-Regular'" font-size="14">Nav</text>
	<line fill="none" stroke="#000000" stroke-miterlimit="10" x1="153.076" y1="70.285" x2="498.871" y2="70.285"/>
	<line fill="none" stroke="#000000" stroke-miterlimit="10" x1="498.871" y1="70.285" x2="498.871" y2="85.67"/>
	<line fill="none" stroke="#000000" stroke-miterlimit="10" x1="153.076" y1="70.285" x2="153.076" y2="85.67"/>
	<line fill="none" stroke="#000000" stroke-miterlimit="10" x1="268.791" y1="85.67" x2="268.791" y2="70.285"/>
	<line fill="none" stroke="#000000" stroke-miterlimit="10" x1="383.657" y1="85.67" x2="383.657" y2="70.285"/>
	<rect x="399.133" y="171.469" fill="#D1D3D4" stroke="#000000" stroke-miterlimit="10" width="113.387" height="25.345"/>
	<text transform="matrix(1 0 0 1 435.4995 188.2505)" font-family="'MyriadPro-Regular'" font-size="14">Sprints</text>
	<rect x="528.705" y="171.469" fill="#D1D3D4" stroke="#000000" stroke-miterlimit="10" width="113.386" height="25.345"/>
	<text transform="matrix(1 0 0 1 567.1313 188.2505)" font-family="'MyriadPro-Regular'" font-size="14">About</text>
	<rect x="269.28" y="171.469" fill="#D1D3D4" stroke="#000000" stroke-miterlimit="10" width="113.386" height="25.345"/>
	<text transform="matrix(1 0 0 1 291.6602 188.2505)" font-family="'MyriadPro-Regular'" font-size="14">User Stories</text>
	<line fill="none" stroke="#000000" stroke-miterlimit="10" x1="223.925" y1="111.015" x2="223.925" y2="143.813"/>
	<line fill="none" stroke="#000000" stroke-miterlimit="10" x1="69.547" y1="157.976" x2="585.395" y2="157.976"/>
	<line fill="none" stroke="#000000" stroke-miterlimit="10" x1="196.261" y1="157.976" x2="196.261" y2="171.469"/>
	<line fill="none" stroke="#000000" stroke-miterlimit="10" x1="325.973" y1="157.976" x2="325.973" y2="171.469"/>
	<line fill="none" stroke="#000000" stroke-miterlimit="10" x1="455.827" y1="157.976" x2="455.827" y2="171.469"/>
	<line fill="none" stroke="#000000" stroke-miterlimit="10" x1="69.547" y1="157.976" x2="69.547" y2="171.469"/>
	<line fill="none" stroke="#000000" stroke-miterlimit="10" x1="585.395" y1="157.976" x2="585.395" y2="171.469"/>
	<line fill="none" stroke="#000000" stroke-miterlimit="10" x1="403.262" y1="196.814" x2="403.262" y2="289.292"/>
	<line fill="none" stroke="#000000" stroke-miterlimit="10" x1="273.66" y1="196.814" x2="273.66" y2="288.629"/>
	<rect x="23.485" y="210.629" fill="#F1F2F2" stroke="#000000" stroke-miterlimit="10" width="69.582" height="17.273"/>
	<rect x="9.855" y="171.469" fill="#D1D3D4" stroke="#000000" stroke-miterlimit="10" width="113.386" height="25.345"/>
	<text transform="matrix(1 0 0 1 48.7871 188.2505)" font-family="'MyriadPro-Regular'" font-size="14">Home</text>
	<text transform="matrix(1 0 0 1 28.623 222.9023)" font-family="'MyriadPro-Regular'" font-size="11">ButtonHome</text>
	<rect x="233.77" y="118.072" fill="#F1F2F2" stroke="#000000" stroke-miterlimit="10" width="47.82" height="17.273"/>
	<line fill="none" stroke="#000000" stroke-miterlimit="10" x1="223.925" y1="127.572" x2="233.77" y2="127.572"/>
	<text transform="matrix(1 0 0 1 238.9097 130.3452)" font-family="'MyriadPro-Regular'" font-size="11">NavItem</text>
	<rect x="139.568" y="171.469" fill="#D1D3D4" stroke="#000000" stroke-miterlimit="10" width="113.386" height="25.345"/>
	<text transform="matrix(1 0 0 1 173.04 188.2505)" font-family="'MyriadPro-Regular'" font-size="14">Projects</text>
	<line fill="none" stroke="#000000" stroke-miterlimit="10" x1="143.32" y1="196.814" x2="143.32" y2="288.629"/>
	<rect x="153.165" y="210.629" fill="#F1F2F2" stroke="#000000" stroke-miterlimit="10" width="85.743" height="17.273"/>
	<line fill="none" stroke="#000000" stroke-miterlimit="10" x1="143.32" y1="220.129" x2="153.165" y2="220.129"/>
	<text transform="matrix(1 0 0 1 158.2109 222.9023)" font-family="'MyriadPro-Regular'" font-size="11">TableHeaderProj</text>
	<rect x="153.165" y="236.629" fill="#F1F2F2" stroke="#000000" stroke-miterlimit="10" width="85.743" height="17.273"/>
	<line fill="none" stroke="#000000" stroke-miterlimit="10" x1="143.32" y1="246.129" x2="153.165" y2="246.129"/>
	<text transform="matrix(1 0 0 1 158.2109 248.9023)" font-family="'MyriadPro-Regular'" font-size="11">TableBodyProj</text>
	<rect x="153.165" y="262.962" fill="#F1F2F2" stroke="#000000" stroke-miterlimit="10" width="85.743" height="17.273"/>
	<line fill="none" stroke="#000000" stroke-miterlimit="10" x1="143.32" y1="272.462" x2="153.165" y2="272.462"/>
	<text transform="matrix(1 0 0 1 158.2002 275.2358)" font-family="'MyriadPro-Regular'" font-size="11">FormProj</text>
	<rect x="413.107" y="210.462" fill="#F1F2F2" stroke="#000000" stroke-miterlimit="10" width="95.772" height="17.273"/>
	<line fill="none" stroke="#000000" stroke-miterlimit="10" x1="403.262" y1="219.962" x2="413.107" y2="219.962"/>
	<text transform="matrix(1 0 0 1 418.1558 222.7354)" font-family="'MyriadPro-Regular'" font-size="11">TableHeaderSprint</text>
	<rect x="413.107" y="236.462" fill="#F1F2F2" stroke="#000000" stroke-miterlimit="10" width="95.772" height="17.273"/>
	<line fill="none" stroke="#000000" stroke-miterlimit="10" x1="403.262" y1="245.962" x2="413.107" y2="245.962"/>
	<text transform="matrix(1 0 0 1 418.1558 248.7354)" font-family="'MyriadPro-Regular'" font-size="11">TableBodySprint</text>
	<rect x="413.107" y="262.795" fill="#F1F2F2" stroke="#000000" stroke-miterlimit="10" width="95.772" height="17.273"/>
	<line fill="none" stroke="#000000" stroke-miterlimit="10" x1="403.262" y1="272.295" x2="413.107" y2="272.295"/>
	<text transform="matrix(1 0 0 1 418.144 275.0688)" font-family="'MyriadPro-Regular'" font-size="11">FormSprint</text>
	<rect x="283.504" y="210.462" fill="#F1F2F2" stroke="#000000" stroke-miterlimit="10" width="79.315" height="17.273"/>
	<line fill="none" stroke="#000000" stroke-miterlimit="10" x1="273.66" y1="219.962" x2="283.504" y2="219.962"/>
	<text transform="matrix(1 0 0 1 288.5522 222.7354)" font-family="'MyriadPro-Regular'" font-size="11">TableHeaderUS</text>
	<rect x="283.504" y="236.462" fill="#F1F2F2" stroke="#000000" stroke-miterlimit="10" width="79.315" height="17.273"/>
	<line fill="none" stroke="#000000" stroke-miterlimit="10" x1="273.66" y1="245.962" x2="283.504" y2="245.962"/>
	<text transform="matrix(1 0 0 1 288.5522 248.7354)" font-family="'MyriadPro-Regular'" font-size="11">TableBodyUS</text>
	<rect x="283.504" y="262.795" fill="#F1F2F2" stroke="#000000" stroke-miterlimit="10" width="79.315" height="17.273"/>
	<line fill="none" stroke="#000000" stroke-miterlimit="10" x1="273.66" y1="272.295" x2="283.504" y2="272.295"/>
	<text transform="matrix(1 0 0 1 288.5415 275.0688)" font-family="'MyriadPro-Regular'" font-size="11">FormUserStory</text>
	<line fill="none" stroke="#000000" stroke-miterlimit="10" x1="325.972" y1="70.285" x2="325.973" y2="51.052"/>
	<line fill="none" stroke="#000000" stroke-miterlimit="10" x1="325.973" y1="157.976" x2="383.657" y2="110.896"/>
</g>
<g>
	<text transform="matrix(1 0 0 1 8.7651 23.772)" font-family="'MyriadPro-Regular'" font-size="16.4984">: Component Tree</text>
</g>
</svg>
